<mxfile host="app.diagrams.net" modified="2023-11-02T12:20:16.412Z" agent="Mozilla/5.0 (X11; Linux x86_64; rv:109.0) Gecko/20100101 Firefox/119.0" version="22.0.8" etag="UvulObwhIFCE06CeXJBe" type="github">
  <diagram name="Page-1" id="501Ff_eeZb3qefrGNSia">
    <mxGraphModel>
      <root>
        <mxCell id="0" />
        <mxCell id="1" parent="0" />
      </root>
    </mxGraphModel>
  </diagram>
</mxfile>
